<svg width="40" height="49" viewBox="0 0 40 49" fill="none" xmlns="http://www.w3.org/2000/svg">
<path fill-rule="evenodd" clip-rule="evenodd" d="M19.8649 49C20.962 49 21.8513 48.1106 21.8513 47.0135C21.8513 45.9164 20.962 45.027 19.8649 45.027C18.7678 45.027 17.8784 45.9164 17.8784 47.0135C17.8784 48.1106 18.7678 49 19.8649 49Z" fill="#C44569"/>
<path fill-rule="evenodd" clip-rule="evenodd" d="M16.164 39.6853C13.9753 39.2079 26.487 38.4172 23.4178 39.6853C20.3487 40.9534 19.8024 44 19.8024 44C19.8024 44 18.3527 40.1628 16.164 39.6853Z" fill="#C44569"/>
<path fill-rule="evenodd" clip-rule="evenodd" d="M20 40C31.0457 40 40 31.0457 40 20C40 8.95431 31.0457 0 20 0C8.95431 0 0 8.95431 0 20C0 31.0457 8.95431 40 20 40Z" fill="#C44569"/>
<g clip-path="url(#clip0)">
<path d="M25.5833 27.0834C25.5833 27.5417 25.2083 27.9167 24.75 27.9167H13.0833C12.625 27.9167 12.25 27.5417 12.25 27.0834V20.4167C12.25 19.9584 12.625 19.5834 13.0833 19.5834H24.75C25.2083 19.5834 25.5833 19.9584 25.5833 20.4167V27.0834Z" stroke="white" stroke-miterlimit="10" stroke-linejoin="round"/>
<path d="M14.75 22.0834H23.0833" stroke="white" stroke-miterlimit="10" stroke-linecap="round" stroke-linejoin="round"/>
<path d="M14.75 17.9167C16.5909 17.9167 18.0833 16.4243 18.0833 14.5833C18.0833 12.7424 16.5909 11.25 14.75 11.25C12.909 11.25 11.4167 12.7424 11.4167 14.5833C11.4167 16.4243 12.909 17.9167 14.75 17.9167Z" stroke="white" stroke-miterlimit="10" stroke-linecap="round" stroke-linejoin="round"/>
<path d="M21.8333 17.9167C22.9839 17.9167 23.9167 16.9839 23.9167 15.8333C23.9167 14.6827 22.9839 13.75 21.8333 13.75C20.6827 13.75 19.75 14.6827 19.75 15.8333C19.75 16.9839 20.6827 17.9167 21.8333 17.9167Z" stroke="white" stroke-miterlimit="10" stroke-linecap="round" stroke-linejoin="round"/>
<path d="M25.5833 25L29.8142 26.7625C30.2367 26.9392 30.5833 26.7084 30.5833 26.25V21.25C30.5833 20.7917 30.2367 20.5609 29.8142 20.7375L25.5833 22.5" stroke="white" stroke-miterlimit="10" stroke-linecap="round" stroke-linejoin="round"/>
</g>
<defs>
<clipPath id="clip0">
<rect x="11" y="10" width="20" height="20" fill="white"/>
</clipPath>
</defs>
</svg>
