<svg width="42" height="50" viewBox="0 0 42 50" fill="none" xmlns="http://www.w3.org/2000/svg">
<path fill-rule="evenodd" clip-rule="evenodd" d="M20.8625 49.85C21.9786 49.85 22.8834 48.9452 22.8834 47.8291C22.8834 46.7129 21.9786 45.8081 20.8625 45.8081C19.7464 45.8081 18.8416 46.7129 18.8416 47.8291C18.8416 48.9452 19.7464 49.85 20.8625 49.85Z" fill="#79BAE9"/>
<path fill-rule="evenodd" clip-rule="evenodd" d="M31.122 2.69235C28.1409 0.979507 24.6848 0 21 0C9.76271 0 0.653076 9.10964 0.653076 20.3469C0.653076 30.1583 7.5975 38.3477 16.8393 40.2681C16.8593 40.3043 16.9419 40.3398 17.0975 40.3738C19.3241 40.8595 20.799 44.7633 20.799 44.7633C20.799 44.7633 21.3433 41.7273 24.3815 40.4142C34.0094 38.8037 41.347 30.4322 41.347 20.3469C41.347 16.9465 40.5128 13.7409 39.038 10.9236C38.6993 10.9739 38.3527 11 38 11C34.134 11 31 7.86599 31 4C31 3.5531 31.0419 3.11598 31.122 2.69235Z" fill="#79BAE9"/>
<path d="M20.625 18.8637C22.6961 18.8637 24.375 17.1678 24.375 15.0758C24.375 12.9838 22.6961 11.2879 20.625 11.2879C18.5539 11.2879 16.875 12.9838 16.875 15.0758C16.875 17.1678 18.5539 18.8637 20.625 18.8637Z" stroke="white" stroke-miterlimit="10" stroke-linejoin="round"/>
<path d="M16.125 15.0758H25.125" stroke="white" stroke-miterlimit="10" stroke-linecap="round" stroke-linejoin="round"/>
<path d="M22.5 18.3561L21.8467 26.0743C21.792 26.7099 21.2655 27.197 20.6347 27.197C19.9927 27.197 19.458 26.7016 19.4018 26.0554L18.75 18.3561" stroke="white" stroke-miterlimit="10" stroke-linejoin="round"/>
<path d="M20.625 27.197V28.7122" stroke="white" stroke-miterlimit="10" stroke-linecap="round" stroke-linejoin="round"/>
<path d="M20.625 21.1364V22.6516" stroke="white" stroke-miterlimit="10" stroke-linecap="round" stroke-linejoin="round"/>
</svg>
