<svg width="41" height="50" viewBox="0 0 41 50" fill="none" xmlns="http://www.w3.org/2000/svg">
<path fill-rule="evenodd" clip-rule="evenodd" d="M20.2095 49.85C21.3256 49.85 22.2304 48.9452 22.2304 47.8291C22.2304 46.7129 21.3256 45.8081 20.2095 45.8081C19.0933 45.8081 18.1885 46.7129 18.1885 47.8291C18.1885 48.9452 19.0933 49.85 20.2095 49.85Z" fill="#546DE5"/>
<path fill-rule="evenodd" clip-rule="evenodd" d="M40.6939 20.3469C40.6939 30.4322 33.3563 38.8037 23.7284 40.4142C20.6903 41.7273 20.1459 44.7633 20.1459 44.7633C20.1459 44.7633 18.671 40.8595 16.4444 40.3738C16.2888 40.3398 16.2063 40.3043 16.1862 40.2681C6.94443 38.3477 0 30.1583 0 20.3469C0 9.10964 9.10964 0 20.3469 0C31.5843 0 40.6939 9.10964 40.6939 20.3469Z" fill="#546DE5"/>
<path d="M19.972 18.8637C22.0431 18.8637 23.722 17.1678 23.722 15.0758C23.722 12.9839 22.0431 11.288 19.972 11.288C17.9009 11.288 16.222 12.9839 16.222 15.0758C16.222 17.1678 17.9009 18.8637 19.972 18.8637Z" stroke="white" stroke-miterlimit="10" stroke-linejoin="round"/>
<path d="M15.472 15.0758H24.472" stroke="white" stroke-miterlimit="10" stroke-linecap="round" stroke-linejoin="round"/>
<path d="M21.847 18.3562L21.1937 26.0744C21.139 26.71 20.6125 27.1971 19.9817 27.1971C19.3397 27.1971 18.805 26.7017 18.7487 26.0554L18.097 18.3562" stroke="white" stroke-miterlimit="10" stroke-linejoin="round"/>
<path d="M19.972 27.197V28.7122" stroke="white" stroke-miterlimit="10" stroke-linecap="round" stroke-linejoin="round"/>
<path d="M19.972 21.1365V22.6516" stroke="white" stroke-miterlimit="10" stroke-linecap="round" stroke-linejoin="round"/>
</svg>
