<svg width="40" height="49" viewBox="0 0 40 49" fill="none" xmlns="http://www.w3.org/2000/svg">
<path fill-rule="evenodd" clip-rule="evenodd" d="M19.8649 49C20.962 49 21.8514 48.1106 21.8514 47.0135C21.8514 45.9164 20.962 45.027 19.8649 45.027C18.7678 45.027 17.8784 45.9164 17.8784 47.0135C17.8784 48.1106 18.7678 49 19.8649 49Z" fill="#F7D794"/>
<path fill-rule="evenodd" clip-rule="evenodd" d="M16.1641 39.6853C13.9754 39.2079 26.4872 38.4172 23.418 39.6853C20.3488 40.9534 19.8025 44 19.8025 44C19.8025 44 18.3528 40.1628 16.1641 39.6853Z" fill="#F7D794"/>
<path fill-rule="evenodd" clip-rule="evenodd" d="M29.2211 2.24791C26.4619 0.811743 23.3257 0 20 0C8.95431 0 0 8.95431 0 20C0 31.0457 8.95431 40 20 40C31.0457 40 40 31.0457 40 20C40 16.6743 39.1883 13.5381 37.7521 10.7789C37.1921 10.9232 36.605 11 36 11C32.134 11 29 7.86599 29 4C29 3.39497 29.0768 2.80787 29.2211 2.24791Z" fill="#F7D794"/>
<path d="M27.6667 12H11.7576V28.6667H17.0606V21.127C17.0606 19.5929 18.2477 18.3492 19.7121 18.3492C21.1765 18.3492 22.3636 19.5929 22.3636 21.127V28.6667H27.6667V12Z" stroke="white" stroke-miterlimit="10" stroke-linecap="round" stroke-linejoin="round"/>
<path d="M11 15.1746H28.4242" stroke="white" stroke-miterlimit="10" stroke-linecap="round" stroke-linejoin="round"/>
<path d="M26.1516 16.7619H23.8789V18.3492H26.1516V16.7619Z" stroke="white" stroke-miterlimit="10" stroke-linecap="round" stroke-linejoin="round"/>
<path d="M15.5454 16.7619H13.2727V18.3492H15.5454V16.7619Z" stroke="white" stroke-miterlimit="10" stroke-linecap="round" stroke-linejoin="round"/>
<path d="M11 21.5238H17.8182" stroke="white" stroke-miterlimit="10" stroke-linecap="round" stroke-linejoin="round"/>
<path d="M21.606 21.5238H28.4241" stroke="white" stroke-miterlimit="10" stroke-linecap="round" stroke-linejoin="round"/>
<path d="M14.0303 12V12.7937" stroke="white" stroke-miterlimit="10" stroke-linecap="round" stroke-linejoin="round"/>
<path d="M15.5454 12V12.7937" stroke="white" stroke-miterlimit="10" stroke-linecap="round" stroke-linejoin="round"/>
<path d="M17.0605 12V12.7937" stroke="white" stroke-miterlimit="10" stroke-linecap="round" stroke-linejoin="round"/>
<path d="M18.5757 12V12.7937" stroke="white" stroke-miterlimit="10" stroke-linecap="round" stroke-linejoin="round"/>
<path d="M20.8484 12V12.7937" stroke="white" stroke-miterlimit="10" stroke-linecap="round" stroke-linejoin="round"/>
<path d="M22.3635 12V12.7937" stroke="white" stroke-miterlimit="10" stroke-linecap="round" stroke-linejoin="round"/>
<path d="M23.8789 12V12.7937" stroke="white" stroke-miterlimit="10" stroke-linecap="round" stroke-linejoin="round"/>
<path d="M25.394 12V12.7937" stroke="white" stroke-miterlimit="10" stroke-linecap="round" stroke-linejoin="round"/>
<path d="M15.5454 24.3016C15.5454 23.6444 15.0371 23.1111 14.4091 23.1111C13.781 23.1111 13.2727 23.6444 13.2727 24.3016V27.0793H15.5454V24.3016Z" stroke="white" stroke-miterlimit="10" stroke-linecap="round" stroke-linejoin="round"/>
<path d="M26.1516 24.3016C26.1516 23.6444 25.6433 23.1111 25.0153 23.1111C24.3872 23.1111 23.8789 23.6444 23.8789 24.3016V27.0793H26.1516V24.3016Z" stroke="white" stroke-miterlimit="10" stroke-linecap="round" stroke-linejoin="round"/>
</svg>
