<svg width="20" height="22" viewBox="0 0 20 22" fill="none" xmlns="http://www.w3.org/2000/svg">
<path d="M0.576933 6.52296C0.569665 6.56247 0.565568 6.60251 0.564246 6.64255V7.46506C0.565304 7.80403 0.77582 8.10705 1.09338 8.22612V9.43636C1.09483 9.84153 1.41345 10.1746 1.81809 10.1937V17.1854C1.41345 17.2047 1.09483 17.5377 1.09338 17.9428V19.1495C0.775159 19.2717 0.564775 19.577 0.564246 19.9177V20.7222C0.564246 20.8722 0.68609 20.9939 0.836081 20.9939H19.1644C19.3144 20.9939 19.4361 20.8722 19.4361 20.7222V19.9177C19.4355 19.5768 19.2252 19.2716 18.9071 19.1495V17.9357C18.9056 17.5305 18.5869 17.1975 18.1824 17.1783V10.1937C18.5869 10.1746 18.9056 9.84153 18.9071 9.43636V8.22612C19.2245 8.10705 19.435 7.80403 19.4361 7.46506V6.64797C19.4349 6.60793 19.4306 6.56789 19.4234 6.52837C19.56 6.5889 19.7198 6.52732 19.7803 6.39067C19.8408 6.25416 19.7793 6.09439 19.6428 6.03373L10.1252 1.03142C10.0458 0.989527 9.95093 0.989527 9.87151 1.03142L0.354126 6.02832C0.221314 6.09849 0.170436 6.26275 0.240344 6.39556C0.304305 6.51688 0.448614 6.57159 0.576933 6.52296ZM1.63692 8.69711V8.27858H4.77127V8.69354L1.63692 8.69711ZM8.61594 10.1956V17.1854C8.2113 17.2047 7.89268 17.5377 7.89123 17.9428V19.0987H5.31111V17.9428C5.30966 17.5377 4.99104 17.2047 4.58639 17.1854V10.1937C4.99104 10.1746 5.30966 9.84153 5.31111 9.43636V8.27858H7.88753V9.43464C7.88819 9.84048 8.20707 10.1743 8.61237 10.1937L8.61594 10.1956ZM8.43476 8.69711V8.27858H11.5693V8.69354L8.43476 8.69711ZM15.4139 10.1956V17.1854C15.0093 17.2047 14.6905 17.5377 14.6891 17.9428V19.0987H12.1091V17.9428C12.1076 17.5377 11.7889 17.2047 11.3844 17.1854V10.1937C11.7889 10.1746 12.1076 9.84153 12.1091 9.43636V8.27858H14.6855V9.43464C14.686 9.84048 15.0049 10.1743 15.4102 10.1937L15.4139 10.1956ZM15.2327 8.69711V8.27858H18.3671V8.69354L15.2327 8.69711ZM18.3671 18.6839V19.0987H15.229V18.6839H18.3671ZM11.5693 18.6839V19.0987H8.4312V18.6839H11.5693ZM8.88408 9.6556H8.64858C8.52846 9.6556 8.4312 9.55833 8.4312 9.43821V9.24064H11.5656V9.43821C11.5656 9.55833 11.4683 9.6556 11.3482 9.6556H8.88408ZM10.8427 10.1991V17.1819H9.15591V10.1991H10.8427ZM8.88408 17.7254H11.3482C11.4683 17.7254 11.5656 17.8227 11.5656 17.9428V18.1404H8.4312V17.9428C8.4312 17.8227 8.52846 17.7254 8.64858 17.7254H8.88408ZM4.76771 18.6839V19.0987H1.63322V18.6839H4.76771ZM1.63322 9.44363V9.24064H4.76771V9.43821C4.76771 9.55833 4.67044 9.6556 4.55018 9.6556H1.84519C1.72651 9.65269 1.63216 9.55503 1.63322 9.43636V9.44363ZM4.04299 10.2046V17.1819H2.35793V10.1991L4.04299 10.2046ZM1.63322 17.9483C1.63322 17.8281 1.73048 17.7308 1.8506 17.7308H4.55018C4.67044 17.7308 4.76771 17.8281 4.76771 17.9483V18.1458H1.63322V17.9483ZM18.8925 19.9286V20.4612H1.10422V19.9286C1.10422 19.7735 1.22989 19.6477 1.38504 19.6477H18.6117C18.7646 19.6477 18.8896 19.7702 18.8925 19.9231V19.9286ZM18.3635 17.9483V18.1458H15.229V17.9483C15.229 17.8281 15.3263 17.7308 15.4464 17.7308H18.1516C18.2675 17.7337 18.3606 17.8269 18.3635 17.9428V17.9483ZM15.9538 17.1873V10.1991H17.6405V17.1819L15.9538 17.1873ZM18.3635 9.44363C18.3635 9.56375 18.2663 9.66102 18.1461 9.66102H15.4483C15.3282 9.66102 15.2309 9.56375 15.2309 9.44363V9.24064H18.3652L18.3635 9.44363ZM9.99837 1.57496L18.0917 5.82903H1.90505L9.99837 1.57496ZM1.10422 6.64797C1.10422 6.49798 1.22593 6.37627 1.37592 6.37627H18.6208C18.7708 6.37627 18.8925 6.49798 18.8925 6.64797V7.47061C18.8925 7.6206 18.7708 7.74231 18.6208 7.74231H1.37592C1.22593 7.74231 1.10422 7.6206 1.10422 7.47061V6.64797Z" fill="black" stroke="black" stroke-width="0.2"/>
</svg>
