<svg width="40" height="49" viewBox="0 0 40 49" fill="none" xmlns="http://www.w3.org/2000/svg">
<path fill-rule="evenodd" clip-rule="evenodd" d="M19.8649 49C20.962 49 21.8513 48.1106 21.8513 47.0135C21.8513 45.9164 20.962 45.027 19.8649 45.027C18.7678 45.027 17.8784 45.9164 17.8784 47.0135C17.8784 48.1106 18.7678 49 19.8649 49Z" fill="#F7D794"/>
<path fill-rule="evenodd" clip-rule="evenodd" d="M16.164 39.6853C13.9753 39.2079 26.487 38.4172 23.4178 39.6853C20.3487 40.9534 19.8024 44 19.8024 44C19.8024 44 18.3527 40.1628 16.164 39.6853Z" fill="#F7D794"/>
<path fill-rule="evenodd" clip-rule="evenodd" d="M20 40C31.0457 40 40 31.0457 40 20C40 8.95431 31.0457 0 20 0C8.95431 0 0 8.95431 0 20C0 31.0457 8.95431 40 20 40Z" fill="#F7D794"/>
<path d="M10.577 14.523C10.5697 14.5625 10.5656 14.6025 10.5643 14.6426V15.4651C10.5653 15.804 10.7759 16.1071 11.0934 16.2261V17.4364C11.0949 17.8415 11.4135 18.1746 11.8181 18.1937V25.1854C11.4135 25.2047 11.0949 25.5377 11.0934 25.9428V27.1495C10.7752 27.2717 10.5648 27.577 10.5643 27.9177V28.7222C10.5643 28.8722 10.6861 28.9939 10.8361 28.9939H29.1644C29.3144 28.9939 29.4361 28.8722 29.4361 28.7222V27.9177C29.4356 27.5768 29.2252 27.2716 28.9071 27.1495V25.9357C28.9056 25.5305 28.5869 25.1975 28.1824 25.1783V18.1937C28.5869 18.1746 28.9056 17.8415 28.9071 17.4364V16.2261C29.2245 16.1071 29.435 15.804 29.4361 15.4651V14.648C29.4349 14.6079 29.4307 14.5679 29.4234 14.5284C29.5601 14.5889 29.7198 14.5273 29.7804 14.3907C29.8409 14.2542 29.7793 14.0944 29.6428 14.0337L20.1253 9.03142C20.0458 8.98953 19.951 8.98953 19.8715 9.03142L10.3542 14.0283C10.2213 14.0985 10.1705 14.2628 10.2404 14.3956C10.3043 14.5169 10.4486 14.5716 10.577 14.523ZM11.6369 16.6971V16.2786H14.7713V16.6935L11.6369 16.6971ZM18.616 18.1956V25.1854C18.2113 25.2047 17.8927 25.5377 17.8913 25.9428V27.0987H15.3111V25.9428C15.3097 25.5377 14.9911 25.2047 14.5864 25.1854V18.1937C14.9911 18.1746 15.3097 17.8415 15.3111 17.4364V16.2786H17.8876V17.4346C17.8882 17.8405 18.2071 18.1743 18.6124 18.1937L18.616 18.1956ZM18.4348 16.6971V16.2786H21.5693V16.6935L18.4348 16.6971ZM25.414 18.1956V25.1854C25.0093 25.2047 24.6906 25.5377 24.6891 25.9428V27.0987H22.1091V25.9428C22.1077 25.5377 21.7889 25.2047 21.3844 25.1854V18.1937C21.7889 18.1746 22.1077 17.8415 22.1091 17.4364V16.2786H24.6855V17.4346C24.6861 17.8405 25.0049 18.1743 25.4103 18.1937L25.414 18.1956ZM25.2328 16.6971V16.2786H28.3671V16.6935L25.2328 16.6971ZM28.3671 26.6839V27.0987H25.2291V26.6839H28.3671ZM21.5693 26.6839V27.0987H18.4312V26.6839H21.5693ZM18.8841 17.6556H18.6486C18.5285 17.6556 18.4312 17.5583 18.4312 17.4382V17.2406H21.5656V17.4382C21.5656 17.5583 21.4683 17.6556 21.3482 17.6556H18.8841ZM20.8427 18.1991V25.1819H19.1559V18.1991H20.8427ZM18.8841 25.7254H21.3482C21.4683 25.7254 21.5656 25.8227 21.5656 25.9428V26.1404H18.4312V25.9428C18.4312 25.8227 18.5285 25.7254 18.6486 25.7254H18.8841ZM14.7677 26.6839V27.0987H11.6332V26.6839H14.7677ZM11.6332 17.4436V17.2406H14.7677V17.4382C14.7677 17.5583 14.6705 17.6556 14.5502 17.6556H11.8452C11.7265 17.6527 11.6322 17.555 11.6332 17.4364V17.4436ZM14.043 18.2046V25.1819H12.358V18.1991L14.043 18.2046ZM11.6332 25.9483C11.6332 25.8281 11.7305 25.7308 11.8506 25.7308H14.5502C14.6705 25.7308 14.7677 25.8281 14.7677 25.9483V26.1458H11.6332V25.9483ZM28.8926 27.9286V28.4612H11.1042V27.9286C11.1042 27.7735 11.2299 27.6477 11.3851 27.6477H28.6117C28.7646 27.6477 28.8897 27.7702 28.8926 27.9231V27.9286ZM28.3636 25.9483V26.1458H25.2291V25.9483C25.2291 25.8281 25.3263 25.7308 25.4465 25.7308H28.1516C28.2675 25.7337 28.3607 25.8269 28.3636 25.9428V25.9483ZM25.9538 25.1873V18.1991H27.6406V25.1819L25.9538 25.1873ZM28.3636 17.4436C28.3636 17.5638 28.2663 17.661 28.1462 17.661H25.4483C25.3282 17.661 25.2309 17.5638 25.2309 17.4436V17.2406H28.3653L28.3636 17.4436ZM19.9984 9.57496L28.0917 13.829H11.9051L19.9984 9.57496ZM11.1042 14.648C11.1042 14.498 11.226 14.3763 11.3759 14.3763H28.6209C28.7709 14.3763 28.8926 14.498 28.8926 14.648V15.4706C28.8926 15.6206 28.7709 15.7423 28.6209 15.7423H11.3759C11.226 15.7423 11.1042 15.6206 11.1042 15.4706V14.648Z" fill="white"/>
</svg>
