<svg width="40" height="49" viewBox="0 0 40 49" fill="none" xmlns="http://www.w3.org/2000/svg">
<path fill-rule="evenodd" clip-rule="evenodd" d="M19.8648 49C20.9619 49 21.8513 48.1106 21.8513 47.0135C21.8513 45.9164 20.9619 45.027 19.8648 45.027C18.7677 45.027 17.8784 45.9164 17.8784 47.0135C17.8784 48.1106 18.7677 49 19.8648 49Z" fill="#E77F67"/>
<path fill-rule="evenodd" clip-rule="evenodd" d="M16.164 39.6853C13.9753 39.2079 26.487 38.4172 23.4178 39.6853C20.3487 40.9534 19.8024 44 19.8024 44C19.8024 44 18.3527 40.1628 16.164 39.6853Z" fill="#E77F67"/>
<path fill-rule="evenodd" clip-rule="evenodd" d="M20 40C31.0457 40 40 31.0457 40 20C40 8.9543 31.0457 0 20 0C8.9543 0 0 8.9543 0 20C0 31.0457 8.9543 40 20 40Z" fill="#E77F67"/>
<path d="M22.6516 25.4762H28.7122" stroke="white" stroke-miterlimit="10" stroke-linejoin="round"/>
<path d="M19.6212 20.7143L16.9697 16.7461H18.1061L15.8334 12.7778L13.9394 16.7461H15.0758L12.4243 20.7143H14.3182L11.2879 24.6826H20.7576L17.7273 20.7143H19.6212Z" stroke="white" stroke-miterlimit="10" stroke-linejoin="round"/>
<path d="M15.8334 24.6826V28.6509" stroke="white" stroke-miterlimit="10" stroke-linecap="round" stroke-linejoin="round"/>
<path d="M28.7122 22.3016H22.6516V27.0635H28.7122V22.3016Z" stroke="white" stroke-miterlimit="10" stroke-linejoin="round"/>
<path d="M23.4091 27.0636V28.6509" stroke="white" stroke-miterlimit="10" stroke-linecap="round" stroke-linejoin="round"/>
<path d="M24.1667 22.3016V25.4762" stroke="white" stroke-miterlimit="10" stroke-linejoin="round"/>
<path d="M25.6818 22.3016V25.4762" stroke="white" stroke-miterlimit="10" stroke-linejoin="round"/>
<path d="M27.197 22.3016V25.4762" stroke="white" stroke-miterlimit="10" stroke-linejoin="round"/>
<path d="M27.9546 27.0636V28.6509" stroke="white" stroke-miterlimit="10" stroke-linecap="round" stroke-linejoin="round"/>
</svg>
