<svg width="40" height="49" viewBox="0 0 40 49" fill="none" xmlns="http://www.w3.org/2000/svg">
<path fill-rule="evenodd" clip-rule="evenodd" d="M19.8649 49C20.962 49 21.8514 48.1106 21.8514 47.0135C21.8514 45.9164 20.962 45.027 19.8649 45.027C18.7678 45.027 17.8784 45.9164 17.8784 47.0135C17.8784 48.1106 18.7678 49 19.8649 49Z" fill="#8DC59D"/>
<path fill-rule="evenodd" clip-rule="evenodd" d="M16.1641 39.6853C13.9754 39.2079 26.4872 38.4172 23.418 39.6853C20.3488 40.9534 19.8025 44 19.8025 44C19.8025 44 18.3528 40.1628 16.1641 39.6853Z" fill="#8DC59D"/>
<path fill-rule="evenodd" clip-rule="evenodd" d="M29.2211 2.24791C26.4619 0.811743 23.3257 0 20 0C8.9543 0 0 8.9543 0 20C0 31.0457 8.9543 40 20 40C31.0457 40 40 31.0457 40 20C40 16.6743 39.1883 13.5381 37.7521 10.7789C37.1921 10.9232 36.605 11 36 11C32.134 11 29 7.86599 29 4C29 3.39497 29.0768 2.80787 29.2211 2.24791Z" fill="#8DC59D"/>
<path d="M22.6514 25.4762H28.712" stroke="white" stroke-miterlimit="10" stroke-linejoin="round"/>
<path d="M19.6212 20.7143L16.9697 16.746H18.106L15.8333 12.7778L13.9394 16.746H15.0757L12.4242 20.7143H14.3181L11.2878 24.6825H20.7575L17.7272 20.7143H19.6212Z" stroke="white" stroke-miterlimit="10" stroke-linejoin="round"/>
<path d="M15.8333 24.6825V28.6508" stroke="white" stroke-miterlimit="10" stroke-linecap="round" stroke-linejoin="round"/>
<path d="M28.712 22.3016H22.6514V27.0635H28.712V22.3016Z" stroke="white" stroke-miterlimit="10" stroke-linejoin="round"/>
<path d="M23.4089 27.0635V28.6508" stroke="white" stroke-miterlimit="10" stroke-linecap="round" stroke-linejoin="round"/>
<path d="M24.1667 22.3016V25.4762" stroke="white" stroke-miterlimit="10" stroke-linejoin="round"/>
<path d="M25.6819 22.3016V25.4762" stroke="white" stroke-miterlimit="10" stroke-linejoin="round"/>
<path d="M27.197 22.3016V25.4762" stroke="white" stroke-miterlimit="10" stroke-linejoin="round"/>
<path d="M27.9546 27.0635V28.6508" stroke="white" stroke-miterlimit="10" stroke-linecap="round" stroke-linejoin="round"/>
</svg>
