<svg width="90" height="70" viewBox="0 0 90 70" fill="none" xmlns="http://www.w3.org/2000/svg">
<rect width="90" height="70" fill="#F7D794"/>
<path d="M60.1137 19.7698H29.8864V51.4365H39.9622V37.1111C39.9622 34.1963 42.2177 31.8333 45 31.8333C47.7824 31.8333 50.0379 34.1963 50.0379 37.1111V51.4365H60.1137V19.7698Z" stroke="white" stroke-width="2" stroke-miterlimit="10" stroke-linecap="round" stroke-linejoin="round"/>
<path d="M28.447 25.8016H61.5531" stroke="white" stroke-width="2" stroke-miterlimit="10" stroke-linecap="round" stroke-linejoin="round"/>
<path d="M57.2349 28.8174H52.9167V31.8333H57.2349V28.8174Z" stroke="white" stroke-width="2" stroke-miterlimit="10" stroke-linecap="round" stroke-linejoin="round"/>
<path d="M37.0834 28.8174H32.7652V31.8333H37.0834V28.8174Z" stroke="white" stroke-width="2" stroke-miterlimit="10" stroke-linecap="round" stroke-linejoin="round"/>
<path d="M28.447 37.8651H41.4016" stroke="white" stroke-width="2" stroke-miterlimit="10" stroke-linecap="round" stroke-linejoin="round"/>
<path d="M48.5985 37.8651H61.5531" stroke="white" stroke-width="2" stroke-miterlimit="10" stroke-linecap="round" stroke-linejoin="round"/>
<path d="M34.2046 19.7698V21.2778" stroke="white" stroke-width="2" stroke-miterlimit="10" stroke-linecap="round" stroke-linejoin="round"/>
<path d="M37.0834 19.7698V21.2778" stroke="white" stroke-width="2" stroke-miterlimit="10" stroke-linecap="round" stroke-linejoin="round"/>
<path d="M39.9622 19.7698V21.2778" stroke="white" stroke-width="2" stroke-miterlimit="10" stroke-linecap="round" stroke-linejoin="round"/>
<path d="M42.8409 19.7698V21.2778" stroke="white" stroke-width="2" stroke-miterlimit="10" stroke-linecap="round" stroke-linejoin="round"/>
<path d="M47.1591 19.7698V21.2778" stroke="white" stroke-width="2" stroke-miterlimit="10" stroke-linecap="round" stroke-linejoin="round"/>
<path d="M50.0378 19.7698V21.2778" stroke="white" stroke-width="2" stroke-miterlimit="10" stroke-linecap="round" stroke-linejoin="round"/>
<path d="M52.9167 19.7698V21.2778" stroke="white" stroke-width="2" stroke-miterlimit="10" stroke-linecap="round" stroke-linejoin="round"/>
<path d="M55.7955 19.7698V21.2778" stroke="white" stroke-width="2" stroke-miterlimit="10" stroke-linecap="round" stroke-linejoin="round"/>
<path d="M37.0834 43.1428C37.0834 41.8943 36.1175 40.8809 34.9243 40.8809C33.731 40.8809 32.7652 41.8943 32.7652 43.1428V48.4206H37.0834V43.1428Z" stroke="white" stroke-width="2" stroke-miterlimit="10" stroke-linecap="round" stroke-linejoin="round"/>
<path d="M57.2349 43.1428C57.2349 41.8943 56.2691 40.8809 55.0758 40.8809C53.8826 40.8809 52.9167 41.8943 52.9167 43.1428V48.4206H57.2349V43.1428Z" stroke="white" stroke-width="2" stroke-miterlimit="10" stroke-linecap="round" stroke-linejoin="round"/>
</svg>
